<svg xmlns="http://www.w3.org/2000/svg" data-name="Layer 1" viewBox="0 0 100 125" x="0px" y="0px">
    <path d="M81.85,33.64c-4-1.29-6.58-2.24-8.35-5.37a40.8,40.8,0,0,1-2.81-6.43c-.56-1.52-1.19-3.22-2-5.17a13.71,13.71,0,1,0-26.22,2.18c-1.1,2-1.86,3-3.49,3.61-1.24.44-2.28.17-4-.34-2-.6-5.12-1.51-8,.65-3.22,2.39-3.29,6.41-3.33,9.07,0,.21,0,.45,0,.7a11.72,11.72,0,0,0-5-.79c-5.24.35-9.91,4.39-11.81,8.2-3.41,6.82.26,16.32,6.53,23.36L17.72,89a13,13,0,0,0,12.8,10.76H66.34A13,13,0,0,0,79.16,88.87l3.89-23.4a5.92,5.92,0,0,0,3.56-1.23c8.51-6.58,9.15-15.36,6.91-21.39C91.21,36.63,86,35,81.85,33.64ZM55.22,8.26a5.7,5.7,0,1,1-5.7,5.7A5.71,5.71,0,0,1,55.22,8.26ZM71.27,87.55a5,5,0,0,1-4.93,4.18H30.53A5,5,0,0,1,25.6,87.6l-3-16.87a38.17,38.17,0,0,0,8,3.09l.85,13.91a4,4,0,0,0,4,3.76h.25a4,4,0,0,0,3.75-4.24l-.74-12.05c1.3.1,2.6.17,3.9.17.62,0,1.23,0,1.84,0V87.49a4,4,0,0,0,8,0V74.34a40.5,40.5,0,0,0,5.7-1.65l-.69,14.6a4,4,0,0,0,3.8,4.19h.19a4,4,0,0,0,4-3.81l.93-19.51a22,22,0,0,0,3.49-3.42c.27-.34.56-.72.87-1.13,1-1.33,2.52-3.35,3.66-3.39a2.45,2.45,0,0,1,1.32.49ZM83.18,56.64c-2.85-3-5.89-4.52-9-4.41-5,.17-8,4.18-9.77,6.57-.25.33-.48.64-.7.92-6.77,8.39-27.81,11-40.06,2.26-6.92-5-11.84-14.28-9.75-18.46.73-1.46,3-3.65,5.19-3.8a5.06,5.06,0,0,1,2.44.6,15,15,0,0,0,1.57.58,19.72,19.72,0,0,0,5.56,12.74c6,6,14.84,6.63,18.29,6.63.83,0,1.34,0,1.44,0a4,4,0,0,0-.59-8c-.09,0-8.72.54-13.5-4.28-2.54-2.56-3.62-6.41-3.22-11.42,0,0,0,0,0,0A16.94,16.94,0,0,0,31.55,32a20,20,0,0,1,.14-2.45l1,.27A13.65,13.65,0,0,0,41.6,30a12.52,12.52,0,0,0,6.14-4.57A13.61,13.61,0,0,0,63.33,25a45.86,45.86,0,0,0,3.21,7.22c3.41,6,8.66,7.7,12.87,9,3.82,1.22,5.7,1.92,6.61,4.37C86.73,47.54,87.74,52.19,83.18,56.64Z"/>
</svg>
