<?xml version="1.0" encoding="UTF-8"?> <svg xmlns="http://www.w3.org/2000/svg" width="958" height="1096" viewBox="0 0 958 1096" fill="none"> <g filter="url(#filter0_f_134_7)"> <path d="M515.536 658.732C393.046 456.106 536.472 270.709 485.036 206.238C420.376 125.195 258.296 258.517 239.663 372.831C217.701 507.576 598.546 796.05 515.536 658.732Z" fill="#92F6FF"></path> </g> <g filter="url(#filter1_f_134_7)"> <path d="M381.63 454.789C350.837 409.434 312.243 404.488 279.719 426.569C211.854 472.646 459.549 889.395 557.308 911.6C629.152 927.918 683.841 882.44 672.749 821.354C660.215 752.32 667.04 751.379 613.057 711.844C568.015 678.858 509.988 646.4 464.453 607.462C421.834 571.017 408.983 495.077 381.63 454.789Z" fill="#FFBAF4"></path> </g> <defs> <filter id="filter0_f_134_7" x="58.2687" y="0.894272" width="649.602" height="874.479" filterUnits="userSpaceOnUse" color-interpolation-filters="sRGB"> <feFlood flood-opacity="0" result="BackgroundImageFix"></feFlood> <feBlend mode="normal" in="SourceGraphic" in2="BackgroundImageFix" result="shape"></feBlend> <feGaussianBlur stdDeviation="90.2391" result="effect1_foregroundBlur_134_7"></feGaussianBlur> </filter> <filter id="filter1_f_134_7" x="87.6332" y="233.357" width="767.027" height="862.067" filterUnits="userSpaceOnUse" color-interpolation-filters="sRGB"> <feFlood flood-opacity="0" result="BackgroundImageFix"></feFlood> <feBlend mode="normal" in="SourceGraphic" in2="BackgroundImageFix" result="shape"></feBlend> <feGaussianBlur stdDeviation="90.2391" result="effect1_foregroundBlur_134_7"></feGaussianBlur> </filter> </defs> </svg> 